<svg id="visual" viewBox="0 0 900 600" width="900" height="600" xmlns="http://www.w3.org/2000/svg" xmlns:xlink="http://www.w3.org/1999/xlink" version="1.1"><g stroke-width="1" stroke-linejoin="bevel"><path d="M450 371.9L482 431.6L493 361.9Z" fill="#5e2827" stroke="#5e2827"></path><path d="M482 431.6L530 371.6L493 361.9Z" fill="#603333" stroke="#603333"></path><path d="M413 482.3L494 493.3L482 431.6Z" fill="#5e2423" stroke="#5e2423"></path><path d="M482 431.6L639 434.6L530 371.6Z" fill="#603737" stroke="#603737"></path><path d="M368 430.6L413 482.3L482 431.6Z" fill="#603333" stroke="#603333"></path><path d="M450 371.9L368 430.6L482 431.6Z" fill="#603333" stroke="#603333"></path><path d="M368 430.6L404 498.3L413 482.3Z" fill="#5b1818" stroke="#5b1818"></path><path d="M413 482.3L404 498.3L494 493.3Z" fill="#603e3e" stroke="#603e3e"></path><path d="M477 233.1L379 311.1L450 371.9Z" fill="#5d2020" stroke="#5d2020"></path><path d="M450 371.9L379 311.1L368 430.6Z" fill="#603a3a" stroke="#603a3a"></path><path d="M477 233.1L450 371.9L493 361.9Z" fill="#5b1818" stroke="#5b1818"></path><path d="M530 371.6L477 233.1L493 361.9Z" fill="#603e3e" stroke="#603e3e"></path><path d="M494 493.3L639 434.6L482 431.6Z" fill="#603737" stroke="#603737"></path><path d="M530 371.6L614 289.9L477 233.1Z" fill="#5b1818" stroke="#5b1818"></path><path d="M246 236.1L318 336.9L379 311.1Z" fill="#5b1818" stroke="#5b1818"></path><path d="M379 311.1L318 336.9L368 430.6Z" fill="#5f302f" stroke="#5f302f"></path><path d="M368 430.6L311 439.6L404 498.3Z" fill="#603e3e" stroke="#603e3e"></path><path d="M639 434.6L614 289.9L530 371.6Z" fill="#5f302f" stroke="#5f302f"></path><path d="M309 354.9L311 439.6L368 430.6Z" fill="#603a3a" stroke="#603a3a"></path><path d="M318 336.9L309 354.9L368 430.6Z" fill="#5f2c2b" stroke="#5f2c2b"></path><path d="M614 289.9L571 212.1L477 233.1Z" fill="#603e3e" stroke="#603e3e"></path><path d="M404 498.3L495 600L494 493.3Z" fill="#5f302f" stroke="#5f302f"></path><path d="M494 493.3L637 544.3L639 434.6Z" fill="#603333" stroke="#603333"></path><path d="M361 600L495 600L404 498.3Z" fill="#603737" stroke="#603737"></path><path d="M576 600L637 544.3L494 493.3Z" fill="#603a3a" stroke="#603a3a"></path><path d="M723 305.1L658 269.1L614 289.9Z" fill="#5e2827" stroke="#5e2827"></path><path d="M614 289.9L658 269.1L571 212.1Z" fill="#5c1c1c" stroke="#5c1c1c"></path><path d="M723 305.1L614 289.9L639 434.6Z" fill="#5e2423" stroke="#5e2423"></path><path d="M495 600L576 600L494 493.3Z" fill="#603737" stroke="#603737"></path><path d="M637 544.3L693 471.3L639 434.6Z" fill="#5e2423" stroke="#5e2423"></path><path d="M576 600L587 600L637 544.3Z" fill="#603a3a" stroke="#603a3a"></path><path d="M297 600L361 600L404 498.3Z" fill="#603737" stroke="#603737"></path><path d="M309 354.9L249 467.3L311 439.6Z" fill="#603e3e" stroke="#603e3e"></path><path d="M311 439.6L297 600L404 498.3Z" fill="#5f302f" stroke="#5f302f"></path><path d="M172 413.6L249 467.3L309 354.9Z" fill="#5f302f" stroke="#5f302f"></path><path d="M545 130.4L424 160.4L477 233.1Z" fill="#5e2423" stroke="#5e2423"></path><path d="M477 233.1L424 160.4L379 311.1Z" fill="#603e3e" stroke="#603e3e"></path><path d="M637 544.3L710 475.6L693 471.3Z" fill="#5f2c2b" stroke="#5f2c2b"></path><path d="M693 471.3L723 305.1L639 434.6Z" fill="#5f2c2b" stroke="#5f2c2b"></path><path d="M753 550.3L710 475.6L637 544.3Z" fill="#603333" stroke="#603333"></path><path d="M778 337.9L723 305.1L693 471.3Z" fill="#5d2020" stroke="#5d2020"></path><path d="M562 97.7L545 130.4L653 115.4Z" fill="#5e2423" stroke="#5e2423"></path><path d="M545 130.4L571 212.1L653 115.4Z" fill="#603737" stroke="#603737"></path><path d="M571 212.1L545 130.4L477 233.1Z" fill="#5c1c1c" stroke="#5c1c1c"></path><path d="M249 467.3L297 600L311 439.6Z" fill="#5c1c1c" stroke="#5c1c1c"></path><path d="M301 152.4L246 236.1L379 311.1Z" fill="#603a3a" stroke="#603a3a"></path><path d="M318 336.9L218 269.1L309 354.9Z" fill="#603737" stroke="#603737"></path><path d="M246 236.1L218 269.1L318 336.9Z" fill="#603e3e" stroke="#603e3e"></path><path d="M424 160.4L301 152.4L379 311.1Z" fill="#603333" stroke="#603333"></path><path d="M124 223.4L154 319.9L218 269.1Z" fill="#5e2423" stroke="#5e2423"></path><path d="M362 50.7L301 152.4L424 160.4Z" fill="#603737" stroke="#603737"></path><path d="M778 337.9L770 307.9L723 305.1Z" fill="#5b1818" stroke="#5b1818"></path><path d="M747 156.4L653 115.4L658 269.1Z" fill="#5d2020" stroke="#5d2020"></path><path d="M710 475.6L778 337.9L693 471.3Z" fill="#603737" stroke="#603737"></path><path d="M154 319.9L172 413.6L309 354.9Z" fill="#603a3a" stroke="#603a3a"></path><path d="M249 467.3L165 600L297 600Z" fill="#5f2c2b" stroke="#5f2c2b"></path><path d="M653 115.4L571 212.1L658 269.1Z" fill="#603737" stroke="#603737"></path><path d="M545 130.4L483 85.7L424 160.4Z" fill="#603333" stroke="#603333"></path><path d="M562 97.7L483 85.7L545 130.4Z" fill="#5e2827" stroke="#5e2827"></path><path d="M733 600L753 550.3L637 544.3Z" fill="#5e2827" stroke="#5e2827"></path><path d="M710 475.6L864 429.6L778 337.9Z" fill="#603e3e" stroke="#603e3e"></path><path d="M587 600L733 600L637 544.3Z" fill="#5e2423" stroke="#5e2423"></path><path d="M747 156.4L658 269.1L723 305.1Z" fill="#603e3e" stroke="#603e3e"></path><path d="M193 200.4L218 269.1L246 236.1Z" fill="#603333" stroke="#603333"></path><path d="M218 269.1L154 319.9L309 354.9Z" fill="#5c1c1c" stroke="#5c1c1c"></path><path d="M254 126.4L193 200.4L246 236.1Z" fill="#5e2827" stroke="#5e2827"></path><path d="M251 104.7L254 126.4L301 152.4Z" fill="#5c1c1c" stroke="#5c1c1c"></path><path d="M301 152.4L254 126.4L246 236.1Z" fill="#5c1c1c" stroke="#5c1c1c"></path><path d="M733 600L771 600L753 550.3Z" fill="#603e3e" stroke="#603e3e"></path><path d="M900 327.9L833 269.1L778 337.9Z" fill="#5f302f" stroke="#5f302f"></path><path d="M770 307.9L747 156.4L723 305.1Z" fill="#603333" stroke="#603333"></path><path d="M833 269.1L747 156.4L770 307.9Z" fill="#5e2827" stroke="#5e2827"></path><path d="M483 85.7L362 50.7L424 160.4Z" fill="#603e3e" stroke="#603e3e"></path><path d="M435 0L362 50.7L483 85.7Z" fill="#5b1818" stroke="#5b1818"></path><path d="M435 0L483 85.7L534 0Z" fill="#603e3e" stroke="#603e3e"></path><path d="M362 50.7L251 104.7L301 152.4Z" fill="#5e2423" stroke="#5e2423"></path><path d="M254 126.4L194 77.7L193 200.4Z" fill="#5f2c2b" stroke="#5f2c2b"></path><path d="M130 564.3L249 467.3L172 413.6Z" fill="#603737" stroke="#603737"></path><path d="M130 564.3L165 600L249 467.3Z" fill="#603e3e" stroke="#603e3e"></path><path d="M864 429.6L710 475.6L753 550.3Z" fill="#5c1c1c" stroke="#5c1c1c"></path><path d="M778 337.9L833 269.1L770 307.9Z" fill="#5e2827" stroke="#5e2827"></path><path d="M747 156.4L760 131.7L653 115.4Z" fill="#5b1818" stroke="#5b1818"></path><path d="M534 0L483 85.7L562 97.7Z" fill="#603e3e" stroke="#603e3e"></path><path d="M860 175.4L760 131.7L747 156.4Z" fill="#603e3e" stroke="#603e3e"></path><path d="M124 223.4L103 300.9L154 319.9Z" fill="#603737" stroke="#603737"></path><path d="M154 319.9L64 371.6L172 413.6Z" fill="#603e3e" stroke="#603e3e"></path><path d="M124 223.4L218 269.1L193 200.4Z" fill="#5e2423" stroke="#5e2423"></path><path d="M56 565.3L130 564.3L172 413.6Z" fill="#603e3e" stroke="#603e3e"></path><path d="M900 454.6L864 429.6L900 519.3Z" fill="#5f2c2b" stroke="#5f2c2b"></path><path d="M194 77.7L124 223.4L193 200.4Z" fill="#603737" stroke="#603737"></path><path d="M534 0L562 97.7L577 0Z" fill="#603333" stroke="#603333"></path><path d="M362 50.7L318 0L251 104.7Z" fill="#5e2423" stroke="#5e2423"></path><path d="M577 0L562 97.7L676 29.7Z" fill="#5e2423" stroke="#5e2423"></path><path d="M676 29.7L562 97.7L653 115.4Z" fill="#5d2020" stroke="#5d2020"></path><path d="M65 288.1L64 371.6L103 300.9Z" fill="#603333" stroke="#603333"></path><path d="M103 300.9L64 371.6L154 319.9Z" fill="#603a3a" stroke="#603a3a"></path><path d="M760 131.7L676 29.7L653 115.4Z" fill="#5b1818" stroke="#5b1818"></path><path d="M860 175.4L784 105.7L760 131.7Z" fill="#5e2423" stroke="#5e2423"></path><path d="M760 131.7L784 105.7L676 29.7Z" fill="#5f302f" stroke="#5f302f"></path><path d="M435 0L332 0L362 50.7Z" fill="#603e3e" stroke="#603e3e"></path><path d="M251 104.7L194 77.7L254 126.4Z" fill="#5f302f" stroke="#5f302f"></path><path d="M56 565.3L106 600L130 564.3Z" fill="#5f302f" stroke="#5f302f"></path><path d="M130 564.3L106 600L165 600Z" fill="#5f2c2b" stroke="#5f2c2b"></path><path d="M900 519.3L864 429.6L753 550.3Z" fill="#5d2020" stroke="#5d2020"></path><path d="M864 429.6L900 327.9L778 337.9Z" fill="#5f2c2b" stroke="#5f2c2b"></path><path d="M833 269.1L860 175.4L747 156.4Z" fill="#5d2020" stroke="#5d2020"></path><path d="M221 0L194 77.7L251 104.7Z" fill="#5e2827" stroke="#5e2827"></path><path d="M332 0L318 0L362 50.7Z" fill="#5e2827" stroke="#5e2827"></path><path d="M124 223.4L65 288.1L103 300.9Z" fill="#5e2423" stroke="#5e2423"></path><path d="M0 329.9L65 288.1L0 305.1Z" fill="#603737" stroke="#603737"></path><path d="M900 454.6L900 327.9L864 429.6Z" fill="#5e2827" stroke="#5e2827"></path><path d="M771 600L900 519.3L753 550.3Z" fill="#603a3a" stroke="#603a3a"></path><path d="M900 234.1L860 175.4L833 269.1Z" fill="#603737" stroke="#603737"></path><path d="M781 0L676 29.7L784 105.7Z" fill="#603a3a" stroke="#603a3a"></path><path d="M781 0L695 0L676 29.7Z" fill="#603a3a" stroke="#603a3a"></path><path d="M676 29.7L695 0L577 0Z" fill="#5d2020" stroke="#5d2020"></path><path d="M900 327.9L900 234.1L833 269.1Z" fill="#5f2c2b" stroke="#5f2c2b"></path><path d="M64 371.6L56 565.3L172 413.6Z" fill="#5c1c1c" stroke="#5c1c1c"></path><path d="M0 414.6L56 565.3L64 371.6Z" fill="#5e2423" stroke="#5e2423"></path><path d="M771 600L900 600L900 519.3Z" fill="#603737" stroke="#603737"></path><path d="M318 0L221 0L251 104.7Z" fill="#603a3a" stroke="#603a3a"></path><path d="M0 305.1L65 288.1L0 128.4Z" fill="#5d2020" stroke="#5d2020"></path><path d="M0 329.9L0 414.6L64 371.6Z" fill="#5d2020" stroke="#5d2020"></path><path d="M65 288.1L124 223.4L0 128.4Z" fill="#603333" stroke="#603333"></path><path d="M65 288.1L0 329.9L64 371.6Z" fill="#5e2423" stroke="#5e2423"></path><path d="M0 128.4L124 223.4L53 44.7Z" fill="#5e2827" stroke="#5e2827"></path><path d="M0 414.6L0 524.3L56 565.3Z" fill="#5b1818" stroke="#5b1818"></path><path d="M900 0L781 0L784 105.7Z" fill="#5b1818" stroke="#5b1818"></path><path d="M900 116.7L784 105.7L860 175.4Z" fill="#5d2020" stroke="#5d2020"></path><path d="M900 234.1L900 116.7L860 175.4Z" fill="#5b1818" stroke="#5b1818"></path><path d="M900 116.7L900 114.4L784 105.7Z" fill="#5e2827" stroke="#5e2827"></path><path d="M0 524.3L0 600L56 565.3Z" fill="#603737" stroke="#603737"></path><path d="M56 565.3L0 600L106 600Z" fill="#603a3a" stroke="#603a3a"></path><path d="M53 44.7L124 223.4L194 77.7Z" fill="#5c1c1c" stroke="#5c1c1c"></path><path d="M94 0L53 44.7L194 77.7Z" fill="#5e2827" stroke="#5e2827"></path><path d="M221 0L94 0L194 77.7Z" fill="#603333" stroke="#603333"></path><path d="M53 44.7L0 80.7L0 128.4Z" fill="#5f302f" stroke="#5f302f"></path><path d="M0 0L0 80.7L53 44.7Z" fill="#5f2c2b" stroke="#5f2c2b"></path><path d="M900 114.4L900 0L784 105.7Z" fill="#5e2423" stroke="#5e2423"></path><path d="M94 0L0 0L53 44.7Z" fill="#5d2020" stroke="#5d2020"></path></g></svg>