<svg id="visual" viewBox="0 0 900 600" width="900" height="600" xmlns="http://www.w3.org/2000/svg" xmlns:xlink="http://www.w3.org/1999/xlink" version="1.1"><g stroke-width="1" stroke-linejoin="bevel"><path d="M482 280.1L578 338.9L521 265.1Z" fill="#18191a" stroke="#18191a"></path><path d="M578 338.9L590 321.9L521 265.1Z" fill="#1a1b1c" stroke="#1a1b1c"></path><path d="M482 280.1L454 439.6L578 338.9Z" fill="#0e0f10" stroke="#0e0f10"></path><path d="M454 439.6L609 422.6L578 338.9Z" fill="#111213" stroke="#111213"></path><path d="M578 338.9L609 422.6L590 321.9Z" fill="#0b0c0d" stroke="#0b0c0d"></path><path d="M403 381.9L454 439.6L482 280.1Z" fill="#1a1b1c" stroke="#1a1b1c"></path><path d="M521 265.1L416 235.1L482 280.1Z" fill="#18191a" stroke="#18191a"></path><path d="M482 280.1L416 235.1L403 381.9Z" fill="#1a1b1c" stroke="#1a1b1c"></path><path d="M609 422.6L664 283.1L590 321.9Z" fill="#000000" stroke="#000000"></path><path d="M590 321.9L594 181.4L521 265.1Z" fill="#0b0c0d" stroke="#0b0c0d"></path><path d="M521 265.1L478 121.4L416 235.1Z" fill="#1a1b1c" stroke="#1a1b1c"></path><path d="M664 283.1L594 181.4L590 321.9Z" fill="#0b0c0d" stroke="#0b0c0d"></path><path d="M454 439.6L597 469.6L609 422.6Z" fill="#000000" stroke="#000000"></path><path d="M609 422.6L739 362.9L664 283.1Z" fill="#030406" stroke="#030406"></path><path d="M454 439.6L546 507.3L597 469.6Z" fill="#161718" stroke="#161718"></path><path d="M739 362.9L684 230.1L664 283.1Z" fill="#1a1b1c" stroke="#1a1b1c"></path><path d="M664 283.1L684 230.1L594 181.4Z" fill="#000000" stroke="#000000"></path><path d="M416 235.1L333 351.9L403 381.9Z" fill="#141415" stroke="#141415"></path><path d="M403 381.9L344 480.6L454 439.6Z" fill="#030406" stroke="#030406"></path><path d="M454 439.6L464 566.3L546 507.3Z" fill="#161718" stroke="#161718"></path><path d="M594 181.4L478 121.4L521 265.1Z" fill="#1c1d1e" stroke="#1c1d1e"></path><path d="M316 221.1L298 326.9L333 351.9Z" fill="#1a1b1c" stroke="#1a1b1c"></path><path d="M617 109.7L581 115.4L594 181.4Z" fill="#030406" stroke="#030406"></path><path d="M594 181.4L581 115.4L478 121.4Z" fill="#141415" stroke="#141415"></path><path d="M611 524.3L683 471.6L597 469.6Z" fill="#141415" stroke="#141415"></path><path d="M597 469.6L683 471.6L609 422.6Z" fill="#111213" stroke="#111213"></path><path d="M546 507.3L611 524.3L597 469.6Z" fill="#0b0c0d" stroke="#0b0c0d"></path><path d="M683 471.6L739 362.9L609 422.6Z" fill="#000000" stroke="#000000"></path><path d="M316 221.1L333 351.9L416 235.1Z" fill="#161718" stroke="#161718"></path><path d="M302 443.6L344 480.6L403 381.9Z" fill="#0b0c0d" stroke="#0b0c0d"></path><path d="M405 36.7L419 123.7L478 121.4Z" fill="#0e0f10" stroke="#0e0f10"></path><path d="M478 121.4L419 123.7L416 235.1Z" fill="#07080a" stroke="#07080a"></path><path d="M353 167.4L316 221.1L416 235.1Z" fill="#1a1b1c" stroke="#1a1b1c"></path><path d="M419 123.7L353 167.4L416 235.1Z" fill="#000000" stroke="#000000"></path><path d="M682 138.4L617 109.7L594 181.4Z" fill="#07080a" stroke="#07080a"></path><path d="M581 115.4L579 72.7L478 121.4Z" fill="#000000" stroke="#000000"></path><path d="M302 443.6L403 381.9L333 351.9Z" fill="#18191a" stroke="#18191a"></path><path d="M546 507.3L603 600L611 524.3Z" fill="#07080a" stroke="#07080a"></path><path d="M684 230.1L682 138.4L594 181.4Z" fill="#1a1b1c" stroke="#1a1b1c"></path><path d="M798 193.4L682 138.4L684 230.1Z" fill="#030406" stroke="#030406"></path><path d="M344 480.6L357 507.3L454 439.6Z" fill="#0b0c0d" stroke="#0b0c0d"></path><path d="M357 507.3L464 566.3L454 439.6Z" fill="#030406" stroke="#030406"></path><path d="M298 326.9L302 443.6L333 351.9Z" fill="#161718" stroke="#161718"></path><path d="M344 480.6L272 515.3L357 507.3Z" fill="#0b0c0d" stroke="#0b0c0d"></path><path d="M577 0L579 72.7L677 0Z" fill="#111213" stroke="#111213"></path><path d="M617 109.7L579 72.7L581 115.4Z" fill="#18191a" stroke="#18191a"></path><path d="M508 600L546 507.3L464 566.3Z" fill="#18191a" stroke="#18191a"></path><path d="M508 600L523 600L546 507.3Z" fill="#0e0f10" stroke="#0e0f10"></path><path d="M720 600L770 464.3L683 471.6Z" fill="#1a1b1c" stroke="#1a1b1c"></path><path d="M397 600L508 600L464 566.3Z" fill="#07080a" stroke="#07080a"></path><path d="M791 450.6L800 345.9L739 362.9Z" fill="#141415" stroke="#141415"></path><path d="M739 362.9L800 345.9L684 230.1Z" fill="#1c1d1e" stroke="#1c1d1e"></path><path d="M683 471.6L770 464.3L739 362.9Z" fill="#000000" stroke="#000000"></path><path d="M720 600L683 471.6L611 524.3Z" fill="#161718" stroke="#161718"></path><path d="M523 600L603 600L546 507.3Z" fill="#07080a" stroke="#07080a"></path><path d="M900 499.3L778 459.3L837 600Z" fill="#1a1b1c" stroke="#1a1b1c"></path><path d="M770 464.3L778 459.3L739 362.9Z" fill="#07080a" stroke="#07080a"></path><path d="M900 499.3L791 450.6L778 459.3Z" fill="#1a1b1c" stroke="#1a1b1c"></path><path d="M778 459.3L791 450.6L739 362.9Z" fill="#18191a" stroke="#18191a"></path><path d="M279 600L397 600L357 507.3Z" fill="#0b0c0d" stroke="#0b0c0d"></path><path d="M357 507.3L397 600L464 566.3Z" fill="#0e0f10" stroke="#0e0f10"></path><path d="M822 240.1L798 193.4L684 230.1Z" fill="#111213" stroke="#111213"></path><path d="M577 0L529 0L579 72.7Z" fill="#1a1b1c" stroke="#1a1b1c"></path><path d="M529 0L405 36.7L478 121.4Z" fill="#141415" stroke="#141415"></path><path d="M419 123.7L405 36.7L353 167.4Z" fill="#18191a" stroke="#18191a"></path><path d="M224 186.4L221 203.4L316 221.1Z" fill="#0e0f10" stroke="#0e0f10"></path><path d="M800 345.9L822 240.1L684 230.1Z" fill="#141415" stroke="#141415"></path><path d="M900 230.1L822 240.1L800 345.9Z" fill="#111213" stroke="#111213"></path><path d="M302 443.6L272 515.3L344 480.6Z" fill="#161718" stroke="#161718"></path><path d="M139 462.3L272 515.3L302 443.6Z" fill="#161718" stroke="#161718"></path><path d="M224 186.4L316 221.1L353 167.4Z" fill="#000000" stroke="#000000"></path><path d="M316 221.1L210 232.1L298 326.9Z" fill="#0e0f10" stroke="#0e0f10"></path><path d="M298 326.9L177 329.9L302 443.6Z" fill="#0e0f10" stroke="#0e0f10"></path><path d="M579 72.7L617 109.7L677 0Z" fill="#000000" stroke="#000000"></path><path d="M579 72.7L529 0L478 121.4Z" fill="#1a1b1c" stroke="#1a1b1c"></path><path d="M221 203.4L210 232.1L316 221.1Z" fill="#111213" stroke="#111213"></path><path d="M250 96.7L224 186.4L353 167.4Z" fill="#030406" stroke="#030406"></path><path d="M221 203.4L130 162.4L210 232.1Z" fill="#161718" stroke="#161718"></path><path d="M677 0L617 109.7L682 138.4Z" fill="#1a1b1c" stroke="#1a1b1c"></path><path d="M603 600L720 600L611 524.3Z" fill="#07080a" stroke="#07080a"></path><path d="M529 0L406 0L405 36.7Z" fill="#1a1b1c" stroke="#1a1b1c"></path><path d="M344 0L250 96.7L353 167.4Z" fill="#030406" stroke="#030406"></path><path d="M113 369.6L177 329.9L76 330.9Z" fill="#0e0f10" stroke="#0e0f10"></path><path d="M210 232.1L177 329.9L298 326.9Z" fill="#07080a" stroke="#07080a"></path><path d="M344 0L353 167.4L405 36.7Z" fill="#141415" stroke="#141415"></path><path d="M76 330.9L177 329.9L86 224.1Z" fill="#18191a" stroke="#18191a"></path><path d="M740 37.7L677 0L682 138.4Z" fill="#18191a" stroke="#18191a"></path><path d="M798 193.4L740 37.7L682 138.4Z" fill="#000000" stroke="#000000"></path><path d="M754 30.7L740 37.7L798 193.4Z" fill="#111213" stroke="#111213"></path><path d="M204 600L279 600L272 515.3Z" fill="#0e0f10" stroke="#0e0f10"></path><path d="M272 515.3L279 600L357 507.3Z" fill="#030406" stroke="#030406"></path><path d="M406 0L344 0L405 36.7Z" fill="#07080a" stroke="#07080a"></path><path d="M900 111.7L754 30.7L798 193.4Z" fill="#1a1b1c" stroke="#1a1b1c"></path><path d="M740 37.7L754 30.7L677 0Z" fill="#0b0c0d" stroke="#0b0c0d"></path><path d="M900 409.6L800 345.9L791 450.6Z" fill="#000000" stroke="#000000"></path><path d="M900 409.6L900 390.9L800 345.9Z" fill="#0b0c0d" stroke="#0b0c0d"></path><path d="M822 240.1L900 172.4L798 193.4Z" fill="#161718" stroke="#161718"></path><path d="M900 499.3L900 409.6L791 450.6Z" fill="#030406" stroke="#030406"></path><path d="M900 390.9L900 230.1L800 345.9Z" fill="#161718" stroke="#161718"></path><path d="M177 329.9L139 462.3L302 443.6Z" fill="#030406" stroke="#030406"></path><path d="M900 230.1L900 172.4L822 240.1Z" fill="#1c1d1e" stroke="#1c1d1e"></path><path d="M130 162.4L221 203.4L224 186.4Z" fill="#18191a" stroke="#18191a"></path><path d="M177 329.9L113 369.6L139 462.3Z" fill="#07080a" stroke="#07080a"></path><path d="M837 600L778 459.3L770 464.3Z" fill="#111213" stroke="#111213"></path><path d="M720 600L837 600L770 464.3Z" fill="#030406" stroke="#030406"></path><path d="M113 369.6L124 460.6L139 462.3Z" fill="#111213" stroke="#111213"></path><path d="M139 462.3L204 600L272 515.3Z" fill="#1c1d1e" stroke="#1c1d1e"></path><path d="M113 600L204 600L139 462.3Z" fill="#0b0c0d" stroke="#0b0c0d"></path><path d="M132 135.7L224 186.4L250 96.7Z" fill="#18191a" stroke="#18191a"></path><path d="M132 135.7L130 162.4L224 186.4Z" fill="#1a1b1c" stroke="#1a1b1c"></path><path d="M97 89.7L132 135.7L250 96.7Z" fill="#1a1b1c" stroke="#1a1b1c"></path><path d="M86 224.1L177 329.9L210 232.1Z" fill="#0b0c0d" stroke="#0b0c0d"></path><path d="M900 172.4L900 111.7L798 193.4Z" fill="#1c1d1e" stroke="#1c1d1e"></path><path d="M344 0L226 0L250 96.7Z" fill="#111213" stroke="#111213"></path><path d="M900 111.7L823 0L754 30.7Z" fill="#0b0c0d" stroke="#0b0c0d"></path><path d="M754 30.7L823 0L677 0Z" fill="#0b0c0d" stroke="#0b0c0d"></path><path d="M113 369.6L77 472.3L124 460.6Z" fill="#161718" stroke="#161718"></path><path d="M86 224.1L210 232.1L130 162.4Z" fill="#000000" stroke="#000000"></path><path d="M0 124.4L86 224.1L130 162.4Z" fill="#18191a" stroke="#18191a"></path><path d="M0 418.6L77 472.3L113 369.6Z" fill="#0b0c0d" stroke="#0b0c0d"></path><path d="M124 460.6L113 600L139 462.3Z" fill="#1c1d1e" stroke="#1c1d1e"></path><path d="M837 600L900 600L900 499.3Z" fill="#1a1b1c" stroke="#1a1b1c"></path><path d="M226 0L97 89.7L250 96.7Z" fill="#1c1d1e" stroke="#1c1d1e"></path><path d="M132 135.7L97 89.7L130 162.4Z" fill="#07080a" stroke="#07080a"></path><path d="M0 276.1L0 298.9L76 330.9Z" fill="#000000" stroke="#000000"></path><path d="M77 472.3L113 600L124 460.6Z" fill="#07080a" stroke="#07080a"></path><path d="M900 111.7L900 0L823 0Z" fill="#18191a" stroke="#18191a"></path><path d="M226 0L122 0L97 89.7Z" fill="#0e0f10" stroke="#0e0f10"></path><path d="M0 276.1L86 224.1L0 124.4Z" fill="#1c1d1e" stroke="#1c1d1e"></path><path d="M0 276.1L76 330.9L86 224.1Z" fill="#161718" stroke="#161718"></path><path d="M76 330.9L0 418.6L113 369.6Z" fill="#1c1d1e" stroke="#1c1d1e"></path><path d="M77 472.3L0 567.3L113 600Z" fill="#141415" stroke="#141415"></path><path d="M122 0L111 0L97 89.7Z" fill="#030406" stroke="#030406"></path><path d="M0 124.4L130 162.4L97 89.7Z" fill="#000000" stroke="#000000"></path><path d="M0 298.9L0 418.6L76 330.9Z" fill="#030406" stroke="#030406"></path><path d="M0 90.7L0 124.4L97 89.7Z" fill="#18191a" stroke="#18191a"></path><path d="M0 0L0 90.7L97 89.7Z" fill="#0e0f10" stroke="#0e0f10"></path><path d="M0 418.6L0 567.3L77 472.3Z" fill="#1a1b1c" stroke="#1a1b1c"></path><path d="M0 567.3L0 600L113 600Z" fill="#141415" stroke="#141415"></path><path d="M111 0L0 0L97 89.7Z" fill="#0b0c0d" stroke="#0b0c0d"></path></g></svg>