<svg xmlns="http://www.w3.org/2000/svg" xmlns:xlink="http://www.w3.org/1999/xlink" width="500" zoomAndPan="magnify" viewBox="0 0 375 374.999991" height="500" preserveAspectRatio="xMidYMid meet" version="1.0"><defs><clipPath id="id1"><path d="M 4.808594 4 L 173 4 L 173 173 L 4.808594 173 Z M 4.808594 4 " clip-rule="nonzero"/></clipPath><clipPath id="id2"><path d="M 207 4 L 374.558594 4 L 374.558594 173 L 207 173 Z M 207 4 " clip-rule="nonzero"/></clipPath><clipPath id="id3"><path d="M 4.808594 207 L 173 207 L 173 375 L 4.808594 375 Z M 4.808594 207 " clip-rule="nonzero"/></clipPath><clipPath id="id4"><path d="M 207 207 L 374.558594 207 L 374.558594 375 L 207 375 Z M 207 207 " clip-rule="nonzero"/></clipPath></defs><path fill="rgb(100%, 100%, 100%)" d="M 250.804688 293.242188 C 256.464844 300.269531 264.957031 304.300781 274.113281 304.300781 C 290.726562 304.300781 304.246094 290.761719 304.246094 274.125 C 304.246094 264.957031 300.21875 256.445312 293.203125 250.78125 C 274.613281 235.765625 263.949219 213.453125 263.949219 189.566406 C 263.949219 165.675781 274.613281 143.363281 293.203125 128.347656 C 300.21875 122.683594 304.246094 114.175781 304.246094 105.007812 C 304.246094 88.367188 290.726562 74.828125 274.113281 74.828125 C 264.957031 74.828125 256.464844 78.859375 250.804688 85.886719 C 235.8125 104.503906 213.535156 115.183594 189.683594 115.183594 C 165.835938 115.183594 143.558594 104.503906 128.566406 85.886719 C 122.90625 78.859375 114.414062 74.828125 105.257812 74.828125 C 88.644531 74.828125 75.125 88.367188 75.125 105.007812 C 75.125 114.175781 79.148438 122.683594 86.167969 128.347656 C 104.757812 143.363281 115.421875 165.675781 115.421875 189.566406 C 115.421875 213.453125 104.757812 235.765625 86.167969 250.78125 C 79.148438 256.445312 75.125 264.957031 75.125 274.125 C 75.125 290.761719 88.644531 304.300781 105.257812 304.300781 C 114.414062 304.300781 122.90625 300.269531 128.566406 293.242188 C 143.558594 274.625 165.835938 263.945312 189.683594 263.945312 C 213.535156 263.945312 235.8125 274.625 250.804688 293.242188 Z M 119.480469 285.910156 C 116.050781 290.167969 110.867188 292.613281 105.257812 292.613281 C 95.078125 292.613281 86.796875 284.320312 86.796875 274.125 C 86.796875 268.507812 89.234375 263.316406 93.492188 259.878906 C 114.84375 242.632812 127.089844 217.003906 127.089844 189.566406 C 127.089844 162.125 114.84375 136.496094 93.492188 119.25 C 89.234375 115.816406 86.796875 110.625 86.796875 105.007812 C 86.796875 94.8125 95.078125 86.515625 105.257812 86.515625 C 110.867188 86.515625 116.050781 88.960938 119.480469 93.222656 C 136.699219 114.605469 162.289062 126.871094 189.683594 126.871094 C 217.082031 126.871094 242.671875 114.605469 259.890625 93.222656 C 263.320312 88.960938 268.503906 86.515625 274.113281 86.515625 C 284.292969 86.515625 292.574219 94.8125 292.574219 105.007812 C 292.574219 110.625 290.136719 115.816406 285.878906 119.25 C 264.527344 136.496094 252.28125 162.125 252.28125 189.566406 C 252.28125 217.003906 264.527344 242.632812 285.878906 259.878906 C 290.136719 263.316406 292.574219 268.507812 292.574219 274.125 C 292.574219 284.320312 284.292969 292.613281 274.113281 292.613281 C 268.503906 292.613281 263.320312 290.167969 259.890625 285.910156 C 242.671875 264.523438 217.082031 252.257812 189.683594 252.257812 C 162.289062 252.257812 136.699219 264.523438 119.480469 285.910156 Z M 119.480469 285.910156 " fill-opacity="1" fill-rule="nonzero"/><g clip-path="url(#id1)"><path fill="rgb(100%, 100%, 100%)" d="M 88.5625 172.03125 C 91.785156 172.03125 94.398438 169.414062 94.398438 166.1875 C 94.398438 162.960938 91.785156 160.34375 88.5625 160.34375 C 48.804688 160.34375 16.460938 127.949219 16.460938 88.128906 C 16.460938 48.3125 48.804688 15.917969 88.5625 15.917969 C 128.320312 15.917969 160.664062 48.3125 160.664062 88.128906 C 160.664062 91.359375 163.277344 93.972656 166.5 93.972656 C 169.722656 93.972656 172.332031 91.359375 172.332031 88.128906 C 172.332031 41.867188 134.753906 4.230469 88.5625 4.230469 C 42.371094 4.230469 4.792969 41.867188 4.792969 88.128906 C 4.792969 134.394531 42.371094 172.03125 88.5625 172.03125 Z M 88.5625 172.03125 " fill-opacity="1" fill-rule="nonzero"/></g><g clip-path="url(#id2)"><path fill="rgb(100%, 100%, 100%)" d="M 212.871094 93.972656 C 216.09375 93.972656 218.707031 91.359375 218.707031 88.128906 C 218.707031 48.3125 251.050781 15.917969 290.808594 15.917969 C 330.566406 15.917969 362.910156 48.3125 362.910156 88.128906 C 362.910156 127.949219 330.566406 160.34375 290.808594 160.34375 C 287.585938 160.34375 284.972656 162.960938 284.972656 166.1875 C 284.972656 169.414062 287.585938 172.03125 290.808594 172.03125 C 337 172.03125 374.578125 134.394531 374.578125 88.128906 C 374.578125 41.867188 337 4.230469 290.808594 4.230469 C 244.617188 4.230469 207.039062 41.867188 207.039062 88.128906 C 207.039062 91.359375 209.648438 93.972656 212.871094 93.972656 Z M 212.871094 93.972656 " fill-opacity="1" fill-rule="nonzero"/></g><g clip-path="url(#id3)"><path fill="rgb(100%, 100%, 100%)" d="M 166.5 285.15625 C 163.277344 285.15625 160.664062 287.773438 160.664062 291 C 160.664062 330.816406 128.320312 363.210938 88.5625 363.210938 C 48.804688 363.210938 16.460938 330.816406 16.460938 291 C 16.460938 251.179688 48.804688 218.785156 88.5625 218.785156 C 91.785156 218.785156 94.398438 216.167969 94.398438 212.941406 C 94.398438 209.714844 91.785156 207.097656 88.5625 207.097656 C 42.371094 207.097656 4.792969 244.734375 4.792969 291 C 4.792969 337.261719 42.371094 374.898438 88.5625 374.898438 C 134.753906 374.898438 172.332031 337.261719 172.332031 291 C 172.332031 287.773438 169.722656 285.15625 166.5 285.15625 Z M 166.5 285.15625 " fill-opacity="1" fill-rule="nonzero"/></g><g clip-path="url(#id4)"><path fill="rgb(100%, 100%, 100%)" d="M 290.808594 207.097656 C 287.585938 207.097656 284.972656 209.714844 284.972656 212.941406 C 284.972656 216.167969 287.585938 218.785156 290.808594 218.785156 C 330.566406 218.785156 362.910156 251.179688 362.910156 291 C 362.910156 330.816406 330.566406 363.210938 290.808594 363.210938 C 251.050781 363.210938 218.707031 330.816406 218.707031 291 C 218.707031 287.773438 216.09375 285.15625 212.871094 285.15625 C 209.648438 285.15625 207.039062 287.773438 207.039062 291 C 207.039062 337.261719 244.617188 374.898438 290.808594 374.898438 C 337 374.898438 374.578125 337.261719 374.578125 291 C 374.578125 244.734375 337 207.097656 290.808594 207.097656 Z M 290.808594 207.097656 " fill-opacity="1" fill-rule="nonzero"/></g><path fill="rgb(100%, 100%, 100%)" d="M 202.875 183.722656 L 176.496094 183.722656 C 173.273438 183.722656 170.660156 186.339844 170.660156 189.566406 C 170.660156 192.792969 173.273438 195.410156 176.496094 195.410156 L 202.875 195.410156 C 206.097656 195.410156 208.710938 192.792969 208.710938 189.566406 C 208.710938 186.339844 206.097656 183.722656 202.875 183.722656 Z M 202.875 183.722656 " fill-opacity="1" fill-rule="nonzero"/></svg>