<svg id="visual" viewBox="0 0 1500 200" width="1500" height="200" xmlns="http://www.w3.org/2000/svg" xmlns:xlink="http://www.w3.org/1999/xlink" version="1.1"><g stroke-width="1" stroke-linejoin="bevel"><path d="M803.3 122L635.7 200L838.3 200Z" fill="#481717" stroke="#481717"></path><path d="M803.3 122L667.7 109L635.7 200Z" fill="#510303" stroke="#510303"></path><path d="M667.7 109L532 200L635.7 200Z" fill="#500506" stroke="#500506"></path><path d="M803.3 122L648.7 0L667.7 109Z" fill="#4a1314" stroke="#4a1314"></path><path d="M667.7 109L489 94L532 200Z" fill="#4b1112" stroke="#4b1112"></path><path d="M1016 62L857.3 0L803.3 122Z" fill="#481717" stroke="#481717"></path><path d="M803.3 122L857.3 0L648.7 0Z" fill="#4c0f10" stroke="#4c0f10"></path><path d="M838.3 200L994 200L803.3 122Z" fill="#4b1112" stroke="#4b1112"></path><path d="M530 0L489 94L667.7 109Z" fill="#510303" stroke="#510303"></path><path d="M648.7 0L530 0L667.7 109Z" fill="#4e0b0c" stroke="#4e0b0c"></path><path d="M994 200L1016 62L803.3 122Z" fill="#4a1314" stroke="#4a1314"></path><path d="M1016 62L1003 0L857.3 0Z" fill="#4d0d0e" stroke="#4d0d0e"></path><path d="M489 94L367.3 200L532 200Z" fill="#4c0f10" stroke="#4c0f10"></path><path d="M357.3 109L367.3 200L489 94Z" fill="#4e0b0c" stroke="#4e0b0c"></path><path d="M322.3 0L357.3 109L489 94Z" fill="#4c0f10" stroke="#4c0f10"></path><path d="M994 200L1138.7 200L1016 62Z" fill="#4b1112" stroke="#4b1112"></path><path d="M1016 62L1156.7 0L1003 0Z" fill="#4f0809" stroke="#4f0809"></path><path d="M1138.7 200L1153.7 83L1016 62Z" fill="#500506" stroke="#500506"></path><path d="M530 0L322.3 0L489 94Z" fill="#500506" stroke="#500506"></path><path d="M357.3 109L201.7 83L367.3 200Z" fill="#4d0d0e" stroke="#4d0d0e"></path><path d="M1153.7 83L1156.7 0L1016 62Z" fill="#4f0809" stroke="#4f0809"></path><path d="M322.3 0L201.7 83L357.3 109Z" fill="#510303" stroke="#510303"></path><path d="M322.3 0L195.7 0L201.7 83Z" fill="#491515" stroke="#491515"></path><path d="M201.7 83L133.7 200L367.3 200Z" fill="#481717" stroke="#481717"></path><path d="M0 200L133.7 200L0 115Z" fill="#520000" stroke="#520000"></path><path d="M1138.7 200L1334.3 110L1153.7 83Z" fill="#520000" stroke="#520000"></path><path d="M1153.7 83L1334.3 110L1156.7 0Z" fill="#4b1112" stroke="#4b1112"></path><path d="M1138.7 200L1359.3 200L1334.3 110Z" fill="#520000" stroke="#520000"></path><path d="M1500 68L1364.3 0L1334.3 110Z" fill="#520000" stroke="#520000"></path><path d="M1334.3 110L1364.3 0L1156.7 0Z" fill="#481717" stroke="#481717"></path><path d="M0 115L133.7 200L201.7 83Z" fill="#500506" stroke="#500506"></path><path d="M0 0L0 115L201.7 83Z" fill="#4b1112" stroke="#4b1112"></path><path d="M1359.3 200L1500 68L1334.3 110Z" fill="#481717" stroke="#481717"></path><path d="M195.7 0L0 0L201.7 83Z" fill="#491515" stroke="#491515"></path><path d="M1500 200L1500 68L1359.3 200Z" fill="#520000" stroke="#520000"></path><path d="M1500 68L1500 0L1364.3 0Z" fill="#4e0b0c" stroke="#4e0b0c"></path></g></svg>