<svg id="visual" viewBox="0 0 1500 200" width="1500" height="200" xmlns="http://www.w3.org/2000/svg" xmlns:xlink="http://www.w3.org/1999/xlink" version="1.1"><g stroke-width="1" stroke-linejoin="bevel"><path d="M803.3 122L635.7 200L838.3 200Z" fill="#000810" stroke="#000810"></path><path d="M803.3 122L667.7 109L635.7 200Z" fill="#3d3e3e" stroke="#3d3e3e"></path><path d="M667.7 109L532 200L635.7 200Z" fill="#373839" stroke="#373839"></path><path d="M803.3 122L648.7 0L667.7 109Z" fill="#12171a" stroke="#12171a"></path><path d="M667.7 109L489 94L532 200Z" fill="#181c1f" stroke="#181c1f"></path><path d="M1016 62L857.3 0L803.3 122Z" fill="#000810" stroke="#000810"></path><path d="M803.3 122L857.3 0L648.7 0Z" fill="#1e2124" stroke="#1e2124"></path><path d="M838.3 200L994 200L803.3 122Z" fill="#181c1f" stroke="#181c1f"></path><path d="M530 0L489 94L667.7 109Z" fill="#3d3e3e" stroke="#3d3e3e"></path><path d="M648.7 0L530 0L667.7 109Z" fill="#2a2d2e" stroke="#2a2d2e"></path><path d="M994 200L1016 62L803.3 122Z" fill="#12171a" stroke="#12171a"></path><path d="M1016 62L1003 0L857.3 0Z" fill="#242729" stroke="#242729"></path><path d="M489 94L367.3 200L532 200Z" fill="#1e2124" stroke="#1e2124"></path><path d="M357.3 109L367.3 200L489 94Z" fill="#2a2d2e" stroke="#2a2d2e"></path><path d="M322.3 0L357.3 109L489 94Z" fill="#1e2124" stroke="#1e2124"></path><path d="M994 200L1138.7 200L1016 62Z" fill="#181c1f" stroke="#181c1f"></path><path d="M1016 62L1156.7 0L1003 0Z" fill="#303234" stroke="#303234"></path><path d="M1138.7 200L1153.7 83L1016 62Z" fill="#373839" stroke="#373839"></path><path d="M530 0L322.3 0L489 94Z" fill="#373839" stroke="#373839"></path><path d="M357.3 109L201.7 83L367.3 200Z" fill="#242729" stroke="#242729"></path><path d="M1153.7 83L1156.7 0L1016 62Z" fill="#303234" stroke="#303234"></path><path d="M322.3 0L201.7 83L357.3 109Z" fill="#3d3e3e" stroke="#3d3e3e"></path><path d="M322.3 0L195.7 0L201.7 83Z" fill="#0a1116" stroke="#0a1116"></path><path d="M201.7 83L133.7 200L367.3 200Z" fill="#000810" stroke="#000810"></path><path d="M0 200L133.7 200L0 115Z" fill="#444444" stroke="#444444"></path><path d="M1138.7 200L1334.3 110L1153.7 83Z" fill="#444444" stroke="#444444"></path><path d="M1153.7 83L1334.3 110L1156.7 0Z" fill="#181c1f" stroke="#181c1f"></path><path d="M1138.7 200L1359.3 200L1334.3 110Z" fill="#444444" stroke="#444444"></path><path d="M1500 68L1364.3 0L1334.3 110Z" fill="#444444" stroke="#444444"></path><path d="M1334.3 110L1364.3 0L1156.7 0Z" fill="#000810" stroke="#000810"></path><path d="M0 115L133.7 200L201.7 83Z" fill="#373839" stroke="#373839"></path><path d="M0 0L0 115L201.7 83Z" fill="#181c1f" stroke="#181c1f"></path><path d="M1359.3 200L1500 68L1334.3 110Z" fill="#000810" stroke="#000810"></path><path d="M195.7 0L0 0L201.7 83Z" fill="#0a1116" stroke="#0a1116"></path><path d="M1500 200L1500 68L1359.3 200Z" fill="#444444" stroke="#444444"></path><path d="M1500 68L1500 0L1364.3 0Z" fill="#2a2d2e" stroke="#2a2d2e"></path></g></svg>